<svg width="48" height="48" viewBox="0 0 48 48" fill="none" xmlns="http://www.w3.org/2000/svg">
<g id="icon/bold/battery-empty">
<g id="icon/bold/battery-empty_2">
<g id="battery-empty">
<path id="Vector" d="M25.86 9.58008H14.7C6.5 9.58008 4 12.0801 4 20.2801V27.7201C4 35.9201 6.5 38.4201 14.7 38.4201H25.86C34.06 38.4201 36.56 35.9201 36.56 27.7201V20.2801C36.56 12.0801 34.06 9.58008 25.86 9.58008Z" fill="#2E7DF1"/>
<path id="Vector_2" d="M40.8404 18C40.5604 17.98 40.2004 17.96 39.8004 17.96C39.0204 17.96 38.4004 18.58 38.4004 19.36V28.66C38.4004 29.44 39.0204 30.06 39.8004 30.06C40.2004 30.06 40.5404 30.04 40.8804 30.02C44.0004 29.66 44.0004 27.46 44.0004 25.86V22.14C44.0004 20.54 44.0004 18.34 40.8404 18Z" fill="#2E7DF1"/>
</g>
</g>
</g>
</svg>
