<svg xmlns="http://www.w3.org/2000/svg" width="72" height="72" viewBox="0 0 72 72" fill="currentColor">
  <path d="M50.2497 10.68V6C50.2497 4.77 49.2297 3.75 47.9997 3.75C46.7697 3.75 45.7497 4.77 45.7497 6V10.5H26.2497V6C26.2497 4.77 25.2297 3.75 23.9997 3.75C22.7697 3.75 21.7497 4.77 21.7497 6V10.68C13.6497 11.43 9.71971 16.26 9.11971 23.43C9.05971 24.3 9.77971 25.02 10.6197 25.02H61.3797C62.2497 25.02 62.9697 24.27 62.8797 23.43C62.2797 16.26 58.3497 11.43 50.2497 10.68Z" fill="currentColor"/>
  <path d="M60 29.52H12C10.35 29.52 9 30.87 9 32.52V51C9 60 13.5 66 24 66H48C58.5 66 63 60 63 51V32.52C63 30.87 61.65 29.52 60 29.52ZM27.63 54.63C27.48 54.75 27.33 54.9 27.18 54.99C27 55.11 26.82 55.2 26.64 55.26C26.46 55.35 26.28 55.41 26.1 55.44C25.89 55.47 25.71 55.5 25.5 55.5C25.11 55.5 24.72 55.41 24.36 55.26C23.97 55.11 23.67 54.9 23.37 54.63C22.83 54.06 22.5 53.28 22.5 52.5C22.5 51.72 22.83 50.94 23.37 50.37C23.67 50.1 23.97 49.89 24.36 49.74C24.9 49.5 25.5 49.44 26.1 49.56C26.28 49.59 26.46 49.65 26.64 49.74C26.82 49.8 27 49.89 27.18 50.01C27.33 50.13 27.48 50.25 27.63 50.37C28.17 50.94 28.5 51.72 28.5 52.5C28.5 53.28 28.17 54.06 27.63 54.63ZM27.63 44.13C27.06 44.67 26.28 45 25.5 45C24.72 45 23.94 44.67 23.37 44.13C22.83 43.56 22.5 42.78 22.5 42C22.5 41.22 22.83 40.44 23.37 39.87C24.21 39.03 25.53 38.76 26.64 39.24C27.03 39.39 27.36 39.6 27.63 39.87C28.17 40.44 28.5 41.22 28.5 42C28.5 42.78 28.17 43.56 27.63 44.13ZM38.13 54.63C37.56 55.17 36.78 55.5 36 55.5C35.22 55.5 34.44 55.17 33.87 54.63C33.33 54.06 33 53.28 33 52.5C33 51.72 33.33 50.94 33.87 50.37C34.98 49.26 37.02 49.26 38.13 50.37C38.67 50.94 39 51.72 39 52.5C39 53.28 38.67 54.06 38.13 54.63ZM38.13 44.13C37.98 44.25 37.83 44.37 37.68 44.49C37.5 44.61 37.32 44.7 37.14 44.76C36.96 44.85 36.78 44.91 36.6 44.94C36.39 44.97 36.21 45 36 45C35.22 45 34.44 44.67 33.87 44.13C33.33 43.56 33 42.78 33 42C33 41.22 33.33 40.44 33.87 39.87C34.14 39.6 34.47 39.39 34.86 39.24C35.97 38.76 37.29 39.03 38.13 39.87C38.67 40.44 39 41.22 39 42C39 42.78 38.67 43.56 38.13 44.13ZM48.63 54.63C48.06 55.17 47.28 55.5 46.5 55.5C45.72 55.5 44.94 55.17 44.37 54.63C43.83 54.06 43.5 53.28 43.5 52.5C43.5 51.72 43.83 50.94 44.37 50.37C45.48 49.26 47.52 49.26 48.63 50.37C49.17 50.94 49.5 51.72 49.5 52.5C49.5 53.28 49.17 54.06 48.63 54.63ZM48.63 44.13C48.48 44.25 48.33 44.37 48.18 44.49C48 44.61 47.82 44.7 47.64 44.76C47.46 44.85 47.28 44.91 47.1 44.94C46.89 44.97 46.68 45 46.5 45C45.72 45 44.94 44.67 44.37 44.13C43.83 43.56 43.5 42.78 43.5 42C43.5 41.22 43.83 40.44 44.37 39.87C44.67 39.6 44.97 39.39 45.36 39.24C45.9 39 46.5 38.94 47.1 39.06C47.28 39.09 47.46 39.15 47.64 39.24C47.82 39.3 48 39.39 48.18 39.51C48.33 39.63 48.48 39.75 48.63 39.87C49.17 40.44 49.5 41.22 49.5 42C49.5 42.78 49.17 43.56 48.63 44.13Z" fill="currentColor"/>
</svg>