<svg xmlns="http://www.w3.org/2000/svg" width="252" height="252" viewBox="0 0 252 252" fill="none">
  <path d="M126 21C68.145 21 21 68.145 21 126C21 183.855 68.145 231 126 231C183.855 231 231 183.855 231 126C231 68.145 183.855 21 126 21ZM176.19 101.85L116.655 161.385C115.185 162.855 113.19 163.695 111.09 163.695C108.99 163.695 106.995 162.855 105.525 161.385L75.81 131.67C72.765 128.625 72.765 123.585 75.81 120.54C78.855 117.495 83.895 117.495 86.94 120.54L111.09 144.69L165.06 90.72C168.105 87.675 173.145 87.675 176.19 90.72C179.235 93.765 179.235 98.7 176.19 101.85Z" fill="#9CD130"/>
</svg>